<?xml version="1.0" encoding="UTF-8"?>
<svg version="1.1" xmlns="http://www.w3.org/2000/svg" width="280" height="280">
<path d="M0 0 C1.56518856 1.30929266 3.12796844 2.62147424 4.6875 3.9375 C5.27789062 4.38222656 5.86828125 4.82695313 6.4765625 5.28515625 C22.7928337 17.92833322 31.95836719 38.42982716 36.6875 57.9375 C36.99300781 59.14986328 36.99300781 59.14986328 37.3046875 60.38671875 C37.86114876 64.09456779 37.83178078 67.7563144 37.8125 71.5 C37.81636719 72.25474609 37.82023438 73.00949219 37.82421875 73.78710938 C37.8142621 79.43750733 37.8142621 79.43750733 37.17431641 81.96166992 C36.54675809 84.50872582 36.74064701 86.91682344 36.85522461 89.52026367 C37.67385319 111.08396064 26.95327036 130.5521439 12.75 146.22265625 C-3.30687484 163.34232065 -25.93532142 175.85760878 -49.77246094 177.06176758 C-80.62953007 177.92664378 -105.64473196 170.55451276 -128.83203125 149.66796875 C-145.60995698 133.71476441 -157.39442276 111.01639084 -158.25 87.6484375 C-158.270625 86.42382812 -158.29125 85.19921875 -158.3125 83.9375 C-158.37426294 82.45049004 -158.43680621 80.96351234 -158.5 79.4765625 C-159.40613409 51.48163636 -148.603023 27.88499219 -129.79394531 7.47802734 C-96.25675802 -27.39666808 -37.28686413 -29.51407372 0 0 Z " fill="#EA6C5F" transform="translate(201.3125,65.0625)"/>
<path d="M0 0 C2 2 2 2 3.5625 5.1875 C6.98945908 11.1846784 12.37438458 15.04794007 18.74609375 17.5390625 C29.15921232 21.6233644 29.15921232 21.6233644 31.86328125 26.05078125 C32.65758459 28.29397667 33.38690484 30.56133106 34.046875 32.84765625 C36.55739844 41.15090387 43.84512431 47.90707458 51.1484375 52.2890625 C59.42463688 56.56561162 68.16307733 57.55326224 77.2734375 55.12890625 C83.77085821 52.63304565 88.8279898 49.62847924 93 44 C93.58337468 42.45232864 94.1653641 40.90413454 94.74609375 39.35546875 C96.0559082 36.96533203 96.0559082 36.96533203 98 35 C102.30451092 33.7713041 106.52320709 33.62095275 110.9671936 33.58163452 C113.14928805 33.56228462 115.3242075 33.49127015 117.50463867 33.40551758 C120.37738712 33.29504807 123.24971222 33.20151486 126.12353516 33.12402344 C147.41885045 32.4427021 176.18931312 28.81068688 192 13 C192.71408334 11.01643517 193.38617742 9.01684563 194 7 C194.33 7 194.66 7 195 7 C196.859957 24.19426919 186.83411465 42.96571774 176.5625 55.99609375 C159.36790065 76.15256768 137.73502924 89.6501455 111 93 C79.35244341 94.59871043 53.23892868 87.13150009 29.48046875 65.73046875 C12.09502676 49.1996107 1.04259137 26.48280354 0.04296875 2.46484375 C0.02878906 1.65144531 0.01460937 0.83804688 0 0 Z " fill="#BDB0B8" transform="translate(43,149)"/>
<path d="M0 0 C9.47157049 5.84006068 15.87307559 14.33166967 19 25 C19 26.32 19 27.64 19 29 C66.95148229 28.00613437 66.95148229 28.00613437 109.69921875 8.8203125 C112 7 112 7 114 7 C113.06362853 23.09030154 113.06362853 23.09030154 109.3125 26.5625 C107.44921875 27.7734375 107.44921875 27.7734375 105 29 C103.27716797 29.88558594 103.27716797 29.88558594 101.51953125 30.7890625 C85.93693251 38.51582326 70.23892208 42.09792714 52.9375 43.625 C51.57801856 43.75078737 50.2185624 43.87684825 48.85913086 44.00317383 C38.25334759 44.96957703 27.64335724 45.63298768 17 46 C16.75185547 46.52891846 16.50371094 47.05783691 16.24804688 47.6027832 C11.76362613 56.90667985 6.03353336 62.49974169 -3.78515625 66.15234375 C-13.05202377 68.59573409 -21.63636538 67.62087214 -30 63 C-40.49472581 56.61781 -47.34426666 47.70537696 -51 36 C-51 35.01 -51 34.02 -51 33 C-52.85625 32.4740625 -52.85625 32.4740625 -54.75 31.9375 C-64.39524138 28.6818507 -73.23870314 23.57668788 -79 15 C-80.04976964 11.85069107 -80.10131595 9.61185544 -80.0625 6.3125 C-80.05347656 5.31863281 -80.04445312 4.32476562 -80.03515625 3.30078125 C-80.02355469 2.54152344 -80.01195312 1.78226563 -80 1 C-79.53851563 1.36351562 -79.07703125 1.72703125 -78.6015625 2.1015625 C-69.67015632 8.98545264 -60.51152502 13.91820506 -50 18 C-49.70351562 17.07058594 -49.40703125 16.14117187 -49.1015625 15.18359375 C-46.20146882 6.80211733 -39.66248797 0.68735207 -31.9375 -3.4375 C-21.22463917 -7.68570343 -9.73938514 -5.52132049 0 0 Z " fill="#393738" transform="translate(124,139)"/>
<path d="M0 0 C16.15042505 5.20200957 28.51910657 24.17195131 35.99145508 38.44506836 C42.41948591 51.45906326 48.36240913 69.43456962 45 84 C42.30577927 87.66018323 39.08383089 89.15203959 35 91 C34.08476562 91.51433594 33.16953125 92.02867187 32.2265625 92.55859375 C7.15507435 106.33073998 -23.09077716 107.27037998 -51 107 C-51.99 103.7 -52.98 100.4 -54 97 C-52.96875 96.814375 -51.9375 96.62875 -50.875 96.4375 C-37.67033537 93.08950879 -26.14862762 84.87088769 -17 75 C-16.39671875 74.37867188 -15.7934375 73.75734375 -15.171875 73.1171875 C-0.35953447 57.34374091 4.52067406 38.41574735 4.30078125 17.296875 C4.08305157 11.01286148 2.65575764 5.72647741 0 0 Z " fill="#E75344" transform="translate(194,61)"/>
<path d="M0 0 C0.57621094 0.41765625 1.15242188 0.8353125 1.74609375 1.265625 C2.95652344 2.12800781 2.95652344 2.12800781 4.19140625 3.0078125 C9.97472881 8.119067 14.01939283 15.37612349 15.43359375 22.9453125 C15.70204992 30.61309189 14.45421028 37.09402164 9.74609375 43.265625 C4.11877461 48.81205865 -1.63678137 51.27280541 -9.50390625 51.703125 C-17.11359506 51.55817855 -24.18828511 48.02693747 -29.875 42.98828125 C-34.75905276 36.88667426 -38.67233791 28.51771415 -38.52734375 20.64453125 C-37.66242699 13.11975541 -34.79906663 6.64513 -29.08203125 1.63671875 C-20.91818358 -4.486167 -8.90647718 -5.1834463 0 0 Z " fill="#EAEAEA" transform="translate(118.25390625,146.734375)"/>
<path d="M0 0 C2 2 2 2 3.5625 5.1875 C6.98945908 11.1846784 12.37438458 15.04794007 18.74609375 17.5390625 C29.15921232 21.6233644 29.15921232 21.6233644 31.86328125 26.05078125 C32.65758459 28.29397667 33.38690484 30.56133106 34.046875 32.84765625 C36.55739844 41.15090387 43.84512431 47.90707458 51.1484375 52.2890625 C59.42463688 56.56561162 68.16307733 57.55326224 77.2734375 55.12890625 C83.77085821 52.63304565 88.8279898 49.62847924 93 44 C93.58337468 42.45232864 94.1653641 40.90413454 94.74609375 39.35546875 C96.0559082 36.96533203 96.0559082 36.96533203 98 35 C102.99377796 33.57455711 107.97432337 33.60497168 113.125 33.5625 C114.57477992 33.51867044 116.02442099 33.46998517 117.47387695 33.41650391 C119.63588939 33.33763191 121.79743684 33.26202165 123.96009827 33.20330811 C129.74551795 33.04555944 135.44444632 32.56699761 141.1875 31.875 C145.47270934 31.36374436 149.67490279 30.88242454 154 31 C140.46663992 48.29262677 120.2026809 59.67001847 98.48046875 62.71875 C71.69826388 64.88296858 45.11060727 59.32725391 24.03515625 41.7578125 C23.36355469 41.17773438 22.69195312 40.59765625 22 40 C21.27683594 39.41992188 20.55367187 38.83984375 19.80859375 38.2421875 C15.13073724 34.35346505 11.27688388 30.10190516 7.5625 25.3125 C7.13718994 24.76577637 6.71187988 24.21905273 6.27368164 23.65576172 C2.01259178 17.99096805 0.77016435 13.73459764 0.375 6.6875 C0.30023438 5.43324219 0.22546875 4.17898437 0.1484375 2.88671875 C0.09945312 1.93410156 0.05046875 0.98148438 0 0 Z " fill="#EEEDEE" transform="translate(43,149)"/>
<path d="M0 0 C17.9647768 11.4412545 28.92609358 33.60614671 33.80224609 53.70629883 C35.4761232 61.44314665 36.61745633 69.17951528 35 77 C32.26389464 80.62856891 29.0872318 82.15329501 25 84 C23.453125 84.84111328 23.453125 84.84111328 21.875 85.69921875 C16.88305324 88.3761502 12.65875348 90.28009941 7 91 C7.17015625 90.45214844 7.3403125 89.90429688 7.515625 89.33984375 C8.04614738 87.60435829 8.56115116 85.86410295 9.06640625 84.12109375 C9.69040361 82.03501051 10.36556515 79.96357693 11.08984375 77.91015625 C18.46767825 54.98898359 14.63075001 28.34123065 4 7 C2.68393363 5.31966525 1.35458502 3.64944081 0 2 C0 1.34 0 0.68 0 0 Z " fill="#B63E3A" transform="translate(204,68)"/>
<path d="M0 0 C4.58645317 2.21132564 6.72932663 4.51025947 9 9 C9.96124851 14.80754306 9.86913451 20.36061137 6.8125 25.5 C3.42860355 30.09447349 -0.43740904 33.44764904 -6 35 C-10.7378357 35.45122245 -12.98694045 35.50652977 -17.25 33.375 C-21.04606389 30.09658119 -23.58148271 27.55412888 -24.41796875 22.44921875 C-24.7647168 15.6735745 -23.47033815 11.12056915 -19 6 C-12.98452602 0.1021881 -8.28664373 -0.84270953 0 0 Z " fill="#F6DCD7" transform="translate(101,74)"/>
<path d="M0 0 C4.58516053 1.78183793 7.35677981 4.02542395 10.0625 8.125 C11 11 11 11 10 14 C9.34 14 8.68 14 8 14 C8.06960937 14.96099609 8.06960937 14.96099609 8.140625 15.94140625 C8.40588915 22.29827224 7.78783588 25.84433449 4 31 C1.55083475 33.6180732 0.33615628 33.95474819 -3.25 34.4375 C-8.89847415 33.77851135 -12.89205376 32.23773487 -16.83984375 28.046875 C-20.21670905 23.50201158 -21.83252452 19.76281331 -21.38671875 14.06640625 C-20.20295218 7.74102732 -16.93202786 4.67278671 -12 1 C-8.24797924 -0.87601038 -4.08547163 -0.52484891 0 0 Z " fill="#EEEEEE" transform="translate(108,156)"/>
<path d="M0 0 C3.34548616 3.24057544 6.28794984 6.56075607 9.125 10.25 C23.7458702 28.19489012 48.1006129 40.48517818 71 43 C98.77694002 44.52284541 121.08258315 38.16505916 142.60546875 20.15234375 C145.43632126 17.60780912 147.76824171 15.0782873 150 12 C150 11.67 150 11.34 150 11 C151.65 11 153.3 11 155 11 C146.17192742 27.27134946 125.04486716 38.13087761 108 43.8125 C89.75531308 48.66576647 70.94457372 48.6605008 53 43 C52.03964844 42.71125 51.07929687 42.4225 50.08984375 42.125 C32.98249307 36.48133792 18.23391077 26.06804104 6 13 C5.01 13.495 5.01 13.495 4 14 C3.32739649 12.23141309 2.66211605 10.46003984 2 8.6875 C1.62875 7.70136719 1.2575 6.71523437 0.875 5.69921875 C0 3 0 3 0 0 Z " fill="#D3CCD0" transform="translate(46,168)"/>
<path d="M0 0 C1.68270751 2.22945475 3.3419357 4.47210058 4.98046875 6.734375 C12.53152142 17.05191954 20.45254922 24.7098502 31 32 C30.34 33.98 29.68 35.96 29 38 C18.35532584 36.82451451 7.27133128 29.61584378 -0.29296875 22.27734375 C-2.60407915 19.19410036 -2.93877372 17.19348756 -2.484375 13.41796875 C-2.32453125 12.62003906 -2.1646875 11.82210937 -2 11 C-1.76023438 9.50919922 -1.76023438 9.50919922 -1.515625 7.98828125 C-1.06321945 5.31154841 -0.55618953 2.6567982 0 0 Z " fill="#E65344" transform="translate(45,119)"/>
<path d="M0 0 C4.83053609 2.34173529 8.2921734 6.82781639 11.4375 11.0625 C13.40853441 16.97560323 13.43490506 23.69412325 10.875 29.4375 C8.28738945 33.92207771 4.42452534 37.1452245 -0.546875 38.671875 C-6.63986903 39.8526878 -11.28033093 39.39138125 -16.671875 36.3984375 C-21.24044862 33.17023052 -25.27973822 28.57837566 -26.5625 23.0625 C-27.37986318 16.6131686 -26.80457436 12.09164938 -22.9921875 6.75 C-16.50621779 -0.9055708 -9.44402021 -2.48526848 0 0 Z M-20.875 8.625 C-24.00937765 13.15243438 -24.42878432 17.72181511 -23.5625 23.0625 C-21.03707875 28.90544879 -17.49434989 33.02261655 -11.578125 35.47265625 C-8.36074616 36.41417603 -5.87573432 36.56261084 -2.5625 36.0625 C1.72012574 33.53185752 3.79461661 30.73174752 5.4375 26.0625 C5.66822558 22.71196335 5.61635933 19.4144564 5.4375 16.0625 C6.4275 15.7325 7.4175 15.4025 8.4375 15.0625 C7.0047608 9.4617922 4.58933162 5.95624757 -0.421875 2.9453125 C-8.5030938 -0.38745292 -15.29591532 2.44277104 -20.875 8.625 Z " fill="#909191" transform="translate(110.5625,153.9375)"/>
<path d="M0 0 C7.06840595 4.22045598 9.62064077 8.2472545 12 16 C12.43585976 17.3312673 12.87348063 18.66195881 13.3125 19.9921875 C20.83909121 43.17589757 21.05930048 68.88139903 10 91 C9.01 91 8.02 91 7 91 C7.17015625 90.45214844 7.3403125 89.90429688 7.515625 89.33984375 C8.04614738 87.60435829 8.56115116 85.86410295 9.06640625 84.12109375 C9.69040361 82.03501051 10.36556515 79.96357693 11.08984375 77.91015625 C18.46767825 54.98898359 14.63075001 28.34123065 4 7 C2.68393363 5.31966525 1.35458502 3.64944081 0 2 C0 1.34 0 0.68 0 0 Z " fill="#CC4A3D" transform="translate(204,68)"/>
<path d="M0 0 C2.78707117 2.78707117 2.36551914 4.60456532 2.4375 8.5 C2.30120566 16.32489845 0.77046474 22.28373085 -4.90234375 27.875 C-11.97217643 33.52001035 -19.05209581 34.95519228 -28 34 C-28.99 33.34 -29.98 32.68 -31 32 C-30.29875 31.97421875 -29.5975 31.9484375 -28.875 31.921875 C-21.16202089 31.46077299 -15.3299823 30.23998278 -9.6875 24.75 C-5.3538771 17.68779971 -4.43408689 11.14287125 -4 3 C-2.68 2.67 -1.36 2.34 0 2 C0 1.34 0 0.68 0 0 Z " fill="#B7ACB3" transform="translate(131,164)"/>
<path d="M0 0 C1.17052187 0.71085341 2.31966484 1.45887512 3.4375 2.25 C4.8915625 3.2709375 4.8915625 3.2709375 6.375 4.3125 C8.4375 6.25 8.4375 6.25 9.4375 9.25 C7 10.125 7 10.125 3.4375 10.25 C0.95027524 8.91332819 -1.24599392 7.37797516 -3.51171875 5.6953125 C-7.68786976 2.75212036 -11.85855357 3.13196393 -16.75 3.1875 C-17.87438477 3.19426758 -17.87438477 3.19426758 -19.02148438 3.20117188 C-20.86852383 3.21293646 -22.71552213 3.23087135 -24.5625 3.25 C-23.5625 0.25 -23.5625 0.25 -21.42578125 -0.9140625 C-14.70907777 -2.87501004 -6.38869047 -3.09680798 0 0 Z " fill="#F8F8F8" transform="translate(116.5625,145.75)"/>
<path d="M0 0 C2.66232739 1.07526097 4.62242962 2.34603799 7 4 C7 4.99 7 5.98 7 7 C5.25 7.6875 5.25 7.6875 3 8 C0.9375 6.625 0.9375 6.625 -1 5 C-3.88211302 4.03929566 -5.69850044 3.89418117 -8.6875 3.9375 C-9.49574219 3.94652344 -10.30398437 3.95554688 -11.13671875 3.96484375 C-11.75160156 3.97644531 -12.36648437 3.98804688 -13 4 C-12.67 3.01 -12.34 2.02 -12 1 C-8.29125192 -0.85437404 -4.04679692 -0.46438653 0 0 Z " fill="#F9F9F9" transform="translate(108,156)"/>
<path d="M0 0 C0.46747982 6.57068864 0.47616445 10.75649307 -4 16 C-5.75 17.875 -5.75 17.875 -7 19 C-7.66 18.67 -8.32 18.34 -9 18 C-8.360625 17.05125 -7.72125 16.1025 -7.0625 15.125 C-4.74833035 11.16249197 -4.4512557 7.56658753 -4.2734375 3.0390625 C-4.18320313 2.36617187 -4.09296875 1.69328125 -4 1 C-2 0 -2 0 0 0 Z " fill="#BCB2B9" transform="translate(120,169)"/>
</svg>
